<?xml version="1.0" encoding="UTF-8" standalone="no"?>
<svg
   viewBox="0 0 32 32"
   version="1.1"
   id="svg1"
   sodipodi:docname="Colores.svg"
   inkscape:version="1.3.2 (091e20e, 2023-11-25, custom)"
   xml:space="preserve"
   xmlns:inkscape="http://www.inkscape.org/namespaces/inkscape"
   xmlns:sodipodi="http://sodipodi.sourceforge.net/DTD/sodipodi-0.dtd"
   xmlns="http://www.w3.org/2000/svg"
   xmlns:svg="http://www.w3.org/2000/svg"><defs
     id="defs1" /><sodipodi:namedview
     id="namedview1"
     pagecolor="#ffffff"
     bordercolor="#000000"
     borderopacity="0.25"
     inkscape:showpageshadow="2"
     inkscape:pageopacity="0.0"
     inkscape:pagecheckerboard="true"
     inkscape:deskcolor="#d1d1d1"
     inkscape:zoom="18.141708"
     inkscape:cx="3.582904"
     inkscape:cy="20.257188"
     inkscape:window-width="1920"
     inkscape:window-height="1017"
     inkscape:window-x="-8"
     inkscape:window-y="-8"
     inkscape:window-maximized="1"
     inkscape:current-layer="svg1" /><path
     sodipodi:type="star"
     style="fill:#000000;fill-opacity:1;stroke:#e4fcf8;stroke-width:0.4;stroke-dasharray:none;stroke-opacity:1"
     id="path2"
     inkscape:flatsided="false"
     sodipodi:sides="5"
     sodipodi:cx="11.303289"
     sodipodi:cy="3.6248477"
     sodipodi:r1="2.6481326"
     sodipodi:r2="1.3240663"
     sodipodi:arg1="0.82704074"
     sodipodi:arg2="1.4553593"
     inkscape:rounded="0"
     inkscape:randomized="0"
     d="M 13.096225,5.5736905 11.455796,4.9401017 10.003877,5.9322562 10.099536,4.1763263 8.7072731,3.1020617 10.406822,2.6504262 l 0.591453,-1.65608657 0.954721,1.47680377 1.757801,0.050747 -1.109499,1.3643504 z"
     inkscape:transform-center-x="0.12714932"
     inkscape:transform-center-y="-0.20529741"
     transform="matrix(1.3489981,0,0,1.2707997,-0.31232729,0.49226091)" /><g
     id="g6"
     style="fill:#0483ec;fill-opacity:1;stroke:#e4fcf8;stroke-opacity:1;stroke-width:0.17654069;stroke-dasharray:none"
     transform="matrix(1.0990272,0,0,1.0874681,-5.1755565,-2.8250448)"><path
       sodipodi:type="star"
       style="fill:#04a1ec;fill-opacity:1;stroke:#e4fcf8;stroke-opacity:1;stroke-width:0.13906422;stroke-dasharray:none"
       id="path3"
       inkscape:flatsided="false"
       sodipodi:sides="5"
       sodipodi:cx="10.484775"
       sodipodi:cy="9.2375154"
       sodipodi:r1="3.4750662"
       sodipodi:r2="1.737533"
       sodipodi:arg1="0.40341903"
       sodipodi:arg2="1.0317376"
       inkscape:rounded="0"
       inkscape:randomized="0"
       d="M 13.680877,10.601705 11.3767,10.728653 10.175003,12.698747 9.3422387,10.546573 7.0972226,10.012484 8.8867235,8.5554204 8.7009242,6.2552407 10.639661,7.5068996 12.769846,6.6193993 12.17855,8.8500311 Z"
       inkscape:transform-center-x="0.11710712"
       inkscape:transform-center-y="0.31547506"
       transform="matrix(1.2233771,0,0,1.3173419,-1.5853568,-1.98505)" /><path
       sodipodi:type="star"
       style="fill:#0423ec;fill-opacity:1;stroke:#e4fcf8;stroke-opacity:1;stroke-width:0.1673302;stroke-dasharray:none"
       id="path4"
       inkscape:flatsided="false"
       sodipodi:sides="5"
       sodipodi:cx="10.211937"
       sodipodi:cy="9.0816078"
       sodipodi:r1="2.7060158"
       sodipodi:r2="1.3530079"
       sodipodi:arg1="-0.20304522"
       sodipodi:arg2="0.42527331"
       inkscape:rounded="0"
       inkscape:randomized="0"
       d="M 12.862363,8.5359318 11.444427,9.639818 11.549932,11.43369 10.061908,10.426272 8.3884374,11.08095 8.8867238,9.3544458 7.7469568,7.9651875 9.5429392,7.9055668 10.511995,6.3922795 l 0.611692,1.689657 z"
       inkscape:transform-center-x="-0.1015696"
       inkscape:transform-center-y="-0.17134818"
       transform="matrix(1.0954131,0,0,1.0161623,-0.7391615,-0.18479422)" /></g><path
     sodipodi:type="star"
     style="fill:#f08a27;fill-opacity:1;stroke:#e4fcf8;stroke-opacity:1;stroke-width:0.12534523;stroke-dasharray:none"
     id="path5"
     inkscape:flatsided="false"
     sodipodi:sides="5"
     sodipodi:cx="22.996346"
     sodipodi:cy="2.9622412"
     sodipodi:r1="1.9912559"
     sodipodi:r2="0.99562794"
     sodipodi:arg1="0.8685394"
     sodipodi:arg2="1.4968579"
     inkscape:rounded="0"
     inkscape:randomized="0"
     d="M 24.282582,4.4823386 23.069894,3.9551489 21.948116,4.6552605 22.074762,3.3390149 21.062268,2.4884872 22.353227,2.2021925 22.849249,0.9764258 23.52046,2.1157315 24.839513,2.2086937 23.963384,3.1991181 Z"
     inkscape:transform-center-x="0.079696535"
     inkscape:transform-center-y="-0.2456666"
     transform="matrix(1.7532766,0,0,1.6780731,-16.216506,-0.66208807)" /><path
     sodipodi:type="star"
     style="fill:#7e403c;fill-opacity:1;stroke:#9ffc5c;stroke-width:0.2;stroke-opacity:1"
     id="path7"
     inkscape:flatsided="false"
     sodipodi:sides="5"
     sodipodi:cx="2.0657735"
     sodipodi:cy="13.135201"
     sodipodi:r1="4.6302142"
     sodipodi:r2="2.3151071"
     sodipodi:arg1="0.78539816"
     sodipodi:arg2="1.4137167"
     inkscape:rounded="0"
     inkscape:randomized="0"
     d="M 5.3398294,16.409257 2.427936,15.421806 -0.03629976,17.260753 0.00299794,14.186238 -2.5074351,12.410876 0.42874556,11.498174 1.3414484,8.5619929 l 1.7753617,2.5104331 3.0745145,-0.0393 -1.8389468,2.464236 z"
     inkscape:transform-center-x="0.31719737"
     inkscape:transform-center-y="0.3510808"
     transform="matrix(0,-1.5685239,1.4171376,0,4.7388483,27.800192)" /><path
     sodipodi:type="star"
     style="fill:#ff3c1f;fill-opacity:1;stroke:#c72c6b;stroke-width:0.374317;stroke-linecap:round;stroke-dasharray:none;stroke-opacity:1;paint-order:normal"
     id="path6"
     inkscape:flatsided="false"
     sodipodi:sides="5"
     sodipodi:cx="21.632156"
     sodipodi:cy="16.87698"
     sodipodi:r1="2.8495789"
     sodipodi:r2="1.4247894"
     sodipodi:arg1="0.87255544"
     sodipodi:arg2="1.500874"
     inkscape:rounded="0"
     inkscape:randomized="0"
     d="m 23.464069,19.059684 -1.732369,-0.761396 -1.609326,0.995437 0.188799,-1.882865 -1.444026,-1.222954 1.849053,-0.402278 0.716869,-1.751264 0.953979,1.634243 1.887075,0.140613 -1.259462,1.412297 z"
     inkscape:transform-center-x="0.16396706"
     inkscape:transform-center-y="-0.52223518"
     transform="matrix(2.665192,0,0,2.4525461,-36.606501,-26.545791)" /><path
     sodipodi:type="star"
     style="fill:#3c823c;stroke:#9ffcf8;stroke-width:0.7;stroke-dasharray:none"
     id="path1"
     inkscape:flatsided="false"
     sodipodi:sides="5"
     sodipodi:cx="2.6114495"
     sodipodi:cy="13.914738"
     sodipodi:r1="10.858885"
     sodipodi:r2="5.4294424"
     sodipodi:arg1="1.2456406"
     sodipodi:arg2="1.8739591"
     inkscape:rounded="0"
     inkscape:randomized="0"
     d="M 6.0803893,24.204628 0.99054246,19.096582 -6.1028561,20.393646 -2.8176647,13.974441 -6.2432273,7.6290335 0.87697943,8.7697928 5.8532638,3.5510502 6.9686022,10.675283 13.469678,13.795331 7.038788,17.05759 Z"
     inkscape:transform-center-x="-0.91394281"
     inkscape:transform-center-y="-0.034794733"
     transform="matrix(0.91232276,0,0,0.94297585,8.1134607,8.2911831)" /></svg>
