<?xml version="1.0" encoding="UTF-8" standalone="no"?>
<svg
   viewBox="0 0 32 32"
   version="1.1"
   id="svg13519"
   sodipodi:docname="Numeracion.svg"
   inkscape:version="1.3.2 (091e20e, 2023-11-25, custom)"
   xmlns:inkscape="http://www.inkscape.org/namespaces/inkscape"
   xmlns:sodipodi="http://sodipodi.sourceforge.net/DTD/sodipodi-0.dtd"
   xmlns="http://www.w3.org/2000/svg"
   xmlns:svg="http://www.w3.org/2000/svg">
  <defs
     id="defs13523" />
  <sodipodi:namedview
     id="namedview13521"
     pagecolor="#ffffff"
     bordercolor="#666666"
     borderopacity="1.0"
     inkscape:showpageshadow="2"
     inkscape:pageopacity="0.0"
     inkscape:pagecheckerboard="0"
     inkscape:deskcolor="#d1d1d1"
     showgrid="false"
     inkscape:zoom="9.247631"
     inkscape:cx="34.819728"
     inkscape:cy="12.705957"
     inkscape:window-width="1920"
     inkscape:window-height="1017"
     inkscape:window-x="-8"
     inkscape:window-y="-8"
     inkscape:window-maximized="1"
     inkscape:current-layer="svg13519" />
  <g
     id="g1"
     style="fill:#1e2ccd;fill-opacity:1;stroke:#9ffcf8;stroke-width:0.3;stroke-dasharray:none;stroke-opacity:1"
     transform="matrix(1.271802,0,0,1.1620125,-1.3448632,-0.37857185)">
    <path
       d="m 4.5206272,17.304555 c 0.364937,0 0.696156,0.05715 0.993658,0.171454 0.3014702,0.110222 0.5573224,0.267389 0.7675583,0.471501 0.2142014,0.204113 0.3788193,0.451089 0.4938546,0.74093 0.119,0.285758 0.1785003,0.602132 0.1785003,0.949125 0,0.298004 -0.04165,0.575597 -0.1249504,0.832779 -0.0833,0.2531 -0.1943685,0.495995 -0.3332022,0.728683 -0.1388346,0.228605 -0.3014692,0.453131 -0.487905,0.673572 -0.1864349,0.21636 -0.3827867,0.434761 -0.5890562,0.655203 l -1.9079828,1.97249 3.0563436,-0.0039 c 0.1507346,0 0.2717186,0.0449 0.3629538,0.134716 0.095201,0.08979 0.1428009,0.208176 0.1428009,0.355138 v 0.542016 H 1.7300526 v -0.495993 c 0,-0.09389 0.017855,-0.193908 0.053556,-0.300047 0.039673,-0.110189 0.1071043,-0.212245 0.2023022,-0.306137 l 2.2967235,-2.431021 c 0.1943686,-0.208196 0.364937,-0.406185 0.5117044,-0.593968 0.1507355,-0.187785 0.2756867,-0.373528 0.3748538,-0.557229 0.1031343,-0.187784 0.1804853,-0.375567 0.232052,-0.563352 0.05157,-0.191866 0.077351,-0.391896 0.077351,-0.600091 0,-0.375567 -0.091234,-0.659284 -0.2737027,-0.85115 -0.1824686,-0.191866 -0.4403039,-0.287799 -0.773507,-0.287799 -0.142801,0 -0.2737019,0.02245 -0.3927035,0.06736 -0.1190008,0.0449 -0.2261015,0.106141 -0.3213031,0.183702 -0.0952,0.07756 -0.1765171,0.169413 -0.2439521,0.275552 -0.06743,0.106139 -0.1189972,0.220441 -0.1547001,0.342909 -0.063468,0.187784 -0.1507373,0.310252 -0.2618036,0.367403 -0.1071007,0.05714 -0.2558521,0.0694 -0.4462525,0.03674 L 1.8490623,19.680429 c 0.059496,-0.395982 0.1665985,-0.740935 0.3212995,-1.034858 0.1547011,-0.298004 0.3470864,-0.54498 0.5771553,-0.740928 0.2340361,-0.200031 0.5017883,-0.349034 0.8032576,-0.447006 0.3014693,-0.102057 0.6247556,-0.153086 0.9698525,-0.153082 z"
       fill="#1e8bcd"
       id="path13501"
       style="fill:#1e2ccd;fill-opacity:1;stroke:#9ffcf8;stroke-width:0.3;stroke-dasharray:none;stroke-opacity:1" />
    <path
       d="M 5.0102744,3.104164 2.2781471,5.5589254 2.7977651,6.295968 c 0.027385,0.037831 0.06731,0.076825 0.1175108,0.1146511 0.05476,0.033103 0.1151541,0.05543 0.1836112,0.069613 0.068457,0.014183 0.1427475,0.014183 0.2203329,0 0.077576,-0.014193 0.1537737,-0.054592 0.2313497,-0.1207927 L 4.7348582,5.3030116 c -0.013678,0.2364449 -0.020193,0.4642355 -0.020193,0.6817648 l -3.7e-6,5.5052946 H 6.0384944 V 3.104164 Z"
       fill="#1e8bcd"
       id="path13503"
       style="fill:#1e2ccd;fill-opacity:1;stroke:#9ffcf8;stroke-width:0.3;stroke-dasharray:none;stroke-opacity:1" />
  </g>
  <path
     d="M 9.142611,1.142857 V 30.857142 H 30.856598 V 7.2678289 L 23.999549,1.142857 Z"
     fill="#fafafa"
     id="path13505"
     style="stroke-width:1.14285" />
  <path
     d="m 14.136129,10.188084 h 9.142731 v 1.142857 h -9.142731 z"
     id="path13511-7"
     style="fill:#3a3a38;stroke-width:1.14285" />
  <path
     d="m 9.142611,-1e-7 c -0.6331341,0 -1.1428414,0.50971427 -1.1428414,1.1428571 v 29.714285 c 0,0.633142 0.5097073,1.142857 1.1428414,1.142857 h 21.713987 c 0.633134,0 1.142841,-0.509715 1.142841,-1.142857 V 10.160714 8.2850327 8.0474053 c 0,-0.5150625 0.112993,-0.487537 -0.691004,-1.2201017 L 25.242931,0.84212273 C 24.432056,-1e-7 23.553371,-1e-7 23.991744,-1e-7 h -0.378917 -0.756119 z m 0,1.1428571 h 13.714097 v 6.8571426 c 0,0.6331428 0.509725,1.1476937 1.142841,1.1428571 h 6.857049 V 30.857142 H 9.142611 Z"
     fill="#3a3a38"
     id="path13507"
     style="stroke-width:1.14285" />
  <path
     d="m 23.999549,7.9999996 h 6.857049 L 23.999549,1.142857 Z"
     fill="#fafafa"
     fill-rule="evenodd"
     id="path13509"
     style="stroke-width:1.14285" />
  <path
     d="m 11.374226,6.8571425 h 9.142731 v 1.1428571 h -9.142731 z"
     id="path13511"
     style="fill:#3a3a38;stroke-width:1.14285" />
  <path
     d="m 11.374226,20.571428 h 17.142621 v 1.142857 H 11.374226 Z"
     id="path13513"
     style="fill:#3a3a38;stroke-width:1.14285" />
  <path
     d="m 14.136129,12.891479 h 9.142731 v 1.142857 h -9.142731 z"
     id="path13511-8"
     style="fill:#3a3a38;stroke-width:1.14285" />
  <path
     d="m 14.136129,15.648942 h 9.142731 v 1.142857 h -9.142731 z"
     id="path13511-1"
     style="fill:#3a3a38;stroke-width:1.14285" />
  <path
     d="m 13.810696,23.296988 h 9.142731 v 1.142857 h -9.142731 z"
     id="path13511-7-0"
     style="fill:#3a3a38;stroke-width:1.14285" />
  <path
     d="m 13.810696,26.000383 h 9.142731 v 1.142857 h -9.142731 z"
     id="path13511-8-8"
     style="fill:#3a3a38;stroke-width:1.14285" />
  <path
     d="m 13.810696,28.757846 h 9.142731 v 1.142857 h -9.142731 z"
     id="path13511-1-0"
     style="fill:#3a3a38;stroke-width:1.14285" />
</svg>
