<?xml version="1.0" encoding="UTF-8" standalone="no"?>
<svg
   viewBox="0 0 32 32"
   version="1.1"
   id="svg13519"
   sodipodi:docname="Secciones.svg"
   inkscape:version="1.3.2 (091e20e, 2023-11-25, custom)"
   xmlns:inkscape="http://www.inkscape.org/namespaces/inkscape"
   xmlns:sodipodi="http://sodipodi.sourceforge.net/DTD/sodipodi-0.dtd"
   xmlns="http://www.w3.org/2000/svg"
   xmlns:svg="http://www.w3.org/2000/svg">
  <defs
     id="defs13523" />
  <sodipodi:namedview
     id="namedview13521"
     pagecolor="#ffffff"
     bordercolor="#666666"
     borderopacity="1.0"
     inkscape:showpageshadow="2"
     inkscape:pageopacity="0.0"
     inkscape:pagecheckerboard="true"
     inkscape:deskcolor="#d1d1d1"
     showgrid="false"
     inkscape:zoom="9.247631"
     inkscape:cx="31.68379"
     inkscape:cy="15.301216"
     inkscape:window-width="1920"
     inkscape:window-height="1017"
     inkscape:window-x="-8"
     inkscape:window-y="-8"
     inkscape:window-maximized="1"
     inkscape:current-layer="svg13519" />
  <g
     id="g7">
    <g
       id="g6"
       style="display:inline">
      <path
         d="M 9.142611,1.142857 V 30.857142 H 30.856598 V 7.2678289 L 23.999549,1.142857 Z"
         fill="#fafafa"
         id="path13505"
         style="stroke-width:1.14285" />
      <path
         d="m 9.142611,-1e-7 c -0.6331341,0 -1.1428414,0.50971427 -1.1428414,1.1428571 v 29.714285 c 0,0.633142 0.5097073,1.142857 1.1428414,1.142857 h 21.713987 c 0.633134,0 1.142841,-0.509715 1.142841,-1.142857 V 10.160714 8.2850327 8.0474053 c 0,-0.5150625 0.112993,-0.487537 -0.691004,-1.2201017 L 25.242931,0.84212273 C 24.432056,-1e-7 23.553371,-1e-7 23.991744,-1e-7 h -0.378917 -0.756119 z m 0,1.1428571 h 13.714097 v 6.8571426 c 0,0.6331428 0.509725,1.1476937 1.142841,1.1428571 h 6.857049 V 30.857142 H 9.142611 Z"
         fill="#3a3a38"
         id="path13507"
         style="stroke-width:1.14285" />
      <path
         d="m 23.999549,7.9999996 h 6.857049 L 23.999549,1.142857 Z"
         fill="#fafafa"
         fill-rule="evenodd"
         id="path13509"
         style="stroke-width:1.14285" />
    </g>
    <g
       id="g5"
       style="display:inline">
      <path
         d="m 9.1745,4.8571429 h 12.943 V 6 H 9.1745 Z"
         id="path13511"
         style="fill:#32328c;fill-opacity:1;stroke-width:1.35977" />
      <path
         d="M 12.136129,6.687799 H 21.27886 V 7.398055 H 12.136129 Z"
         id="path13511-7"
         style="fill:#32328c;fill-opacity:1;stroke-width:0.157665;stroke-dasharray:none" />
      <path
         d="M 12.136129,8.367874 H 21.27886 V 9.078117 H 12.136129 Z"
         id="path13511-8"
         style="fill:#32328c;fill-opacity:1;stroke-width:0.945999;stroke-dasharray:none" />
      <path
         d="m 12.136129,10.081543 h 9.142731 v 0.710256 h -9.142731 z"
         id="path13511-1"
         style="fill:#32328c;fill-opacity:1;stroke-width:0.945999;stroke-dasharray:none" />
    </g>
    <g
       id="g4"
       style="display:inline">
      <path
         d="m 9.1745,12.571428 h 21.143 v 1.142857 H 9.1745 Z"
         id="path13513"
         style="fill:#b43c3c;fill-opacity:1;stroke-width:1.26922" />
      <path
         d="m 12,15 h 9.142731 v 0.710256 H 12 Z"
         id="path13511-7-6"
         style="fill:#b43c3c;fill-opacity:1;stroke-width:0.157665;stroke-dasharray:none" />
      <path
         d="m 12,16.680075 h 9.142731 v 0.710243 H 12 Z"
         id="path13511-8-3"
         style="fill:#b43c3c;fill-opacity:1;stroke-width:0.945999;stroke-dasharray:none" />
      <path
         d="m 12,18.393744 h 9.142731 V 19.104 H 12 Z"
         id="path13511-1-6"
         style="fill:#b43c3c;fill-opacity:1;stroke-width:0.945999;stroke-dasharray:none" />
    </g>
    <g
       id="g3"
       style="display:inline">
      <path
         d="m 9.3005,21 h 21.143 v 1.142857 H 9.3005 Z"
         id="path13513-3"
         style="fill:#3c823c;fill-opacity:1;stroke-width:1.26922" />
      <path
         d="m 12,24 h 9.142731 v 0.710256 H 12 Z"
         id="path13511-7-6-6"
         style="fill:#3c823c;fill-opacity:1;stroke-width:0.157665;stroke-dasharray:none" />
      <path
         d="m 12,25.680075 h 9.142731 v 0.710243 H 12 Z"
         id="path13511-8-3-3"
         style="fill:#3c823c;fill-opacity:1;stroke-width:0.945999;stroke-dasharray:none" />
      <path
         d="m 12,27.393744 h 9.142731 V 28.104 H 12 Z"
         id="path13511-1-6-0"
         style="fill:#3c823c;fill-opacity:1;stroke-width:0.945999;stroke-dasharray:none" />
    </g>
  </g>
</svg>
